<svg width="28" height="28" viewBox="0 0 28 28" fill="none" xmlns="http://www.w3.org/2000/svg"><path d="M16.333 17.5001V19.8334C16.333 21.1221 15.2883 22.1667 13.9997 22.1667H10.4997L6.80813 25.5144C6.63716 25.6694 6.39088 25.709 6.17992 25.6155C5.96895 25.522 5.83295 25.3128 5.83301 25.0821V22.1667H4.66634C3.37768 22.1667 2.33301 21.1221 2.33301 19.8334V14.0001C2.33301 12.7114 3.37768 11.6667 4.66634 11.6667H6.99967" stroke="#487BFF" stroke-width="1.5" stroke-linecap="round" stroke-linejoin="round"/><path fill-rule="evenodd" clip-rule="evenodd" d="M25.6667 7V14C25.6667 15.933 24.0997 17.5 22.1667 17.5H21V20.4155C21 20.6463 20.864 20.8553 20.653 20.9488C20.442 21.0423 20.1957 21.0026 20.0248 20.8476L16.3333 17.5001H10.5C8.567 17.5001 7 15.9331 7 14.0001V7C7 5.067 8.567 3.5 10.5 3.5H22.1667C24.0997 3.5 25.6667 5.067 25.6667 7Z" stroke="#487BFF" stroke-width="1.5" stroke-linecap="round" stroke-linejoin="round"/><path d="M17.792 9.17432L14.292 13.4167" stroke="#487BFF" stroke-width="1.5" stroke-linecap="round" stroke-linejoin="round"/><path d="M16.042 11.2954L18.3753 13.4166" stroke="#487BFF" stroke-width="1.5" stroke-linecap="round" stroke-linejoin="round"/><path d="M19.2503 9.17415H13.417" stroke="#487BFF" stroke-width="1.5" stroke-linecap="round" stroke-linejoin="round"/><path d="M16.3359 7.58325L16.3405 9.17417" stroke="#487BFF" stroke-width="1.5" stroke-linecap="round" stroke-linejoin="round"/></svg>