<svg width="20" height="21" viewBox="0 0 20 21" fill="none" xmlns="http://www.w3.org/2000/svg">
<path fill-rule="evenodd" clip-rule="evenodd" d="M14.08 20.5H5.91C2.38 20.5 0 18.229 0 14.84V6.17C0 2.78 2.38 0.5 5.91 0.5H14.08C17.62 0.5 20 2.78 20 6.17V14.84C20 18.229 17.62 20.5 14.08 20.5ZM12.27 9.75H5.92C5.5 9.75 5.17 10.09 5.17 10.5C5.17 10.92 5.5 11.25 5.92 11.25H12.27L9.79 13.72C9.65 13.86 9.57 14.06 9.57 14.25C9.57 14.439 9.65 14.63 9.79 14.78C10.08 15.07 10.56 15.07 10.85 14.78L14.62 11.03C14.9 10.75 14.9 10.25 14.62 9.97L10.85 6.22C10.56 5.93 10.08 5.93 9.79 6.22C9.5 6.52 9.5 6.99 9.79 7.29L12.27 9.75Z" fill="#F7F8FA"/>
</svg>
