<svg width="16" height="16" viewBox="0 0 16 16" fill="none" xmlns="http://www.w3.org/2000/svg">
<rect width="16" height="16" rx="2" fill="#487BFF"/>
<path d="M6.72822 5.00377C6.82013 5.00377 6.89918 4.93869 6.91681 4.84848L7.16704 3.5687H10.5695L8.83671 12.4313H5.4342L5.67366 11.2066C5.69497 11.0976 5.61152 10.9963 5.50046 10.9963H4.95393C4.86202 10.9963 4.78297 11.0614 4.76533 11.1516L4.52176 12.3973C4.42117 12.8852 4.79762 13.3334 5.28908 13.3334H8.93571C9.31237 13.3334 9.63065 13.0631 9.70319 12.7004L9.70338 12.6995L11.482 3.6027C11.5826 3.11482 11.2061 2.66669 10.7147 2.66669H7.06804C6.69138 2.66669 6.3731 2.93694 6.30056 3.29961L6.30037 3.30057L6.00848 4.79343C5.98717 4.90242 6.07063 5.00377 6.18169 5.00377H6.72822Z" fill="white"/>
<path d="M7.60835 5.72461C7.74599 5.72461 7.82464 5.82786 7.76565 6.12173C7.7106 6.41559 7.59655 6.51884 7.45498 6.51884H6.57802L5.90949 10.0055C5.87803 10.1604 5.74039 10.2756 5.39825 10.2756C5.05612 10.2756 4.95388 10.1604 4.98927 10.0055L5.6578 6.51884H4.77691C4.63927 6.51884 4.56062 6.41559 4.61961 6.12173C4.6786 5.82786 4.78871 5.72461 4.93028 5.72461H7.60835Z" fill="white"/>
</svg>
