<svg width="24" height="24" viewBox="0 0 24 24" fill="none" xmlns="http://www.w3.org/2000/svg">
<path d="M14 15V17C14 18.1046 13.1046 19 12 19H9L5.83582 21.8694C5.68927 22.0023 5.47818 22.0362 5.29735 21.9561C5.11652 21.8759 4.99995 21.6967 5 21.4988V19H4C2.89543 19 2 18.1046 2 17V12C2 10.8954 2.89543 10 4 10H6" stroke="#CACEDC" stroke-width="1.5" stroke-linecap="round" stroke-linejoin="round"/>
<path fill-rule="evenodd" clip-rule="evenodd" d="M22 6V12C22 13.6569 20.6569 15 19 15H18V17.499C18 17.6968 17.8834 17.876 17.7026 17.9561C17.5217 18.0363 17.3106 18.0023 17.1641 17.8694L14 15.0001H9C7.34315 15.0001 6 13.6569 6 12.0001V6C6 4.34315 7.34315 3 9 3H19C20.6569 3 22 4.34315 22 6Z" stroke="#CACEDC" stroke-width="1.5" stroke-linecap="round" stroke-linejoin="round"/>
<path d="M15.25 7.86377L12.25 11.5001" stroke="#CACEDC" stroke-width="1.5" stroke-linecap="round" stroke-linejoin="round"/>
<path d="M13.75 9.68164L15.75 11.4998" stroke="#CACEDC" stroke-width="1.5" stroke-linecap="round" stroke-linejoin="round"/>
<path d="M16.5 7.86377H11.5" stroke="#CACEDC" stroke-width="1.5" stroke-linecap="round" stroke-linejoin="round"/>
<path d="M14.0019 6.5L14.0059 7.86364" stroke="#CACEDC" stroke-width="1.5" stroke-linecap="round" stroke-linejoin="round"/>
</svg>
